M48
; DRILL file {KiCad (6.0.4)} date Sat Apr 16 00:06:28 2022
; FORMAT={-:-/ absolute / metric / decimal}
; #@! TF.CreationDate,2022-04-16T00:06:28-07:00
; #@! TF.GenerationSoftware,Kicad,Pcbnew,(6.0.4)
; #@! TF.FileFunction,Plated,1,2,PTH
FMAT,2
METRIC
; #@! TA.AperFunction,Plated,PTH,ViaDrill
T1C0.305
; #@! TA.AperFunction,Plated,PTH,ComponentDrill
T2C0.600
; #@! TA.AperFunction,Plated,PTH,ComponentDrill
T3C0.800
; #@! TA.AperFunction,Plated,PTH,ComponentDrill
T4C0.950
; #@! TA.AperFunction,Plated,PTH,ComponentDrill
T5C2.100
; #@! TA.AperFunction,Plated,PTH,ComponentDrill
T6C3.200
%
G90
G05
T1
X88.9Y-90.805
X88.9Y-92.075
X88.9Y-93.98
X88.9Y-95.25
X88.9Y-96.52
X88.9Y-97.79
X88.9Y-99.06
X88.9Y-100.33
X88.9Y-101.6
X88.9Y-102.87
X88.9Y-104.14
X88.9Y-110.49
X88.9Y-111.76
X88.9Y-113.03
X88.9Y-114.3
X88.9Y-115.57
X90.17Y-90.805
X90.17Y-92.075
X90.17Y-93.98
X90.17Y-95.25
X90.17Y-96.52
X90.17Y-97.79
X90.17Y-99.06
X90.17Y-100.33
X90.17Y-101.6
X90.17Y-102.87
X90.17Y-104.14
X90.17Y-110.49
X90.17Y-111.76
X90.17Y-113.03
X90.17Y-114.3
X90.17Y-115.57
X91.44Y-90.805
X91.44Y-92.075
X91.44Y-93.98
X91.44Y-95.25
X91.44Y-96.52
X91.44Y-97.79
X91.44Y-99.06
X91.44Y-100.33
X91.44Y-101.6
X91.44Y-102.87
X91.44Y-104.14
X91.44Y-111.76
X91.44Y-113.03
X91.44Y-114.3
X91.44Y-115.57
X92.71Y-113.03
X92.71Y-114.3
X92.71Y-115.57
X93.98Y-113.03
X93.98Y-114.3
X93.98Y-115.57
X95.25Y-114.3
X95.25Y-115.57
X96.52Y-114.3
X96.52Y-115.57
X97.79Y-114.3
X97.79Y-115.57
X98.7Y-104.85
X99.06Y-114.3
X99.06Y-115.57
X100.33Y-114.3
X100.33Y-115.57
X101.6Y-114.3
X101.6Y-115.57
X102.87Y-114.3
X102.87Y-115.57
X104.14Y-114.3
X104.14Y-115.57
X104.775Y-108.585
X106.045Y-108.585
X106.045Y-109.855
X107.315Y-108.585
X107.315Y-109.855
X107.315Y-111.125
X111.76Y-99.695
X111.76Y-100.965
X111.76Y-102.235
X113.03Y-100.33
X113.03Y-102.87
X114.0Y-102.0
X114.935Y-99.695
X114.935Y-103.505
X114.935Y-104.775
X128.905Y-109.22
X130.175Y-109.22
X130.175Y-110.49
X131.445Y-109.22
X131.445Y-110.49
X131.445Y-111.76
X131.445Y-113.03
X139.6Y-101.8
X143.51Y-104.775
X143.51Y-106.045
X143.51Y-107.315
X143.51Y-108.585
X144.78Y-104.775
X144.78Y-106.045
X144.78Y-107.315
X144.78Y-108.585
X148.59Y-104.775
X148.59Y-106.045
X148.59Y-107.315
X149.225Y-108.585
X149.225Y-109.855
X149.225Y-111.125
X149.225Y-112.395
X154.305Y-108.585
X154.305Y-109.855
X154.305Y-111.125
X155.575Y-108.585
X155.575Y-109.855
X155.575Y-111.125
X156.845Y-108.585
X156.845Y-109.855
X156.845Y-111.125
X158.115Y-108.585
X158.115Y-109.855
X158.115Y-111.125
X158.115Y-112.395
X161.75Y-107.15
X162.05Y-92.9
X162.05Y-95.45
X162.56Y-99.695
X163.83Y-99.695
X163.83Y-100.965
X163.95Y-103.2
X165.1Y-99.695
X165.1Y-100.965
X165.1Y-102.235
X165.1Y-103.505
X165.1Y-104.775
X168.91Y-107.95
X168.91Y-109.22
X168.91Y-110.49
X169.01Y-106.58
X169.545Y-100.33
X169.545Y-101.6
X169.545Y-102.87
X169.545Y-104.14
X169.545Y-105.41
X170.425Y-108.34
X170.45Y-107.25
X174.3Y-107.55
X177.0Y-98.75
X180.975Y-109.855
X180.975Y-111.125
X180.975Y-112.395
X180.975Y-113.665
X181.3Y-107.5
X181.4Y-106.0
X181.542Y-91.908
X181.61Y-92.714
X182.245Y-109.855
X182.245Y-111.125
X182.245Y-112.395
X182.245Y-113.665
X183.515Y-109.855
X183.515Y-111.125
X183.515Y-112.395
X183.515Y-113.665
X184.785Y-109.855
X184.785Y-111.125
X184.785Y-112.395
X184.785Y-113.665
X186.055Y-109.855
X186.055Y-111.125
X186.055Y-112.395
X186.055Y-113.665
X187.325Y-109.855
X187.325Y-111.125
X187.325Y-112.395
X187.325Y-113.665
X188.1Y-106.05
X188.595Y-109.855
X188.595Y-111.125
X188.595Y-112.395
X188.595Y-113.665
X189.35Y-98.0
X189.865Y-109.855
X189.865Y-111.125
X189.865Y-112.395
X189.865Y-113.665
X191.135Y-109.855
X191.135Y-111.125
X191.135Y-112.395
X191.135Y-113.665
X192.405Y-109.855
X192.405Y-111.125
X192.405Y-112.395
X192.405Y-113.665
X193.675Y-109.855
X193.675Y-111.125
X193.675Y-111.125
X193.675Y-112.395
X193.675Y-113.665
X194.945Y-109.855
X194.945Y-111.125
X194.945Y-112.395
X194.945Y-113.665
X195.85Y-106.45
X196.215Y-109.855
X196.215Y-111.125
X196.215Y-112.395
X196.215Y-113.665
X198.577Y-93.904
X202.8Y-90.85
X205.105Y-84.455
X205.105Y-85.725
X206.05Y-105.8
X206.375Y-84.455
X206.375Y-85.725
X206.55Y-109.15
X207.645Y-84.455
X207.645Y-85.725
X208.915Y-84.455
X208.915Y-85.725
X209.55Y-103.505
X209.55Y-104.775
X210.185Y-84.455
X210.185Y-85.725
X210.82Y-103.505
X210.82Y-104.775
X211.3Y-109.05
X211.455Y-84.455
X211.455Y-85.725
X212.09Y-103.505
X212.09Y-104.775
X212.725Y-84.455
X212.725Y-85.725
X213.995Y-84.455
X213.995Y-85.725
X214.63Y-111.76
X214.63Y-113.03
X214.63Y-114.3
X214.63Y-115.57
X215.265Y-84.455
X215.265Y-85.725
X215.265Y-86.995
X215.265Y-88.265
X215.265Y-89.535
X215.9Y-104.775
X215.9Y-113.03
X215.9Y-114.3
X215.9Y-115.57
X216.535Y-84.455
X216.535Y-85.725
X217.17Y-103.505
X217.17Y-104.775
X217.17Y-113.03
X217.17Y-114.3
X217.17Y-115.57
X217.805Y-84.455
X217.805Y-85.725
X218.44Y-103.505
X218.44Y-104.775
X218.44Y-113.03
X218.44Y-114.3
X218.44Y-115.57
X218.85Y-95.45
X219.075Y-84.455
X219.075Y-85.725
X219.075Y-102.235
X219.71Y-100.965
X219.71Y-103.505
X219.71Y-104.775
X219.71Y-113.03
X219.71Y-114.3
X219.71Y-115.57
X220.345Y-84.455
X220.345Y-85.725
X220.345Y-86.995
X220.98Y-93.345
X220.98Y-94.615
X220.98Y-95.885
X220.98Y-97.155
X220.98Y-98.425
X220.98Y-99.695
X220.98Y-100.965
X220.98Y-102.235
X220.98Y-103.505
X220.98Y-104.775
X220.98Y-106.045
X220.98Y-113.03
X220.98Y-114.3
X220.98Y-115.57
T3
X109.1Y-89.675
X109.1Y-92.215
X109.1Y-94.755
X109.1Y-97.295
X109.1Y-99.835
X109.1Y-102.375
X109.1Y-104.915
X109.1Y-107.455
X109.1Y-109.995
X109.1Y-112.535
X116.72Y-89.675
X116.72Y-92.215
X116.72Y-94.755
X116.72Y-97.295
X116.72Y-99.835
X116.72Y-102.375
X116.72Y-104.915
X116.72Y-107.455
X116.72Y-109.995
X116.72Y-112.535
X133.78Y-89.675
X133.78Y-92.215
X133.78Y-94.755
X133.78Y-97.295
X133.78Y-99.835
X133.78Y-102.375
X133.78Y-104.915
X133.78Y-107.455
X133.78Y-109.995
X133.78Y-112.535
X141.4Y-89.675
X141.4Y-92.215
X141.4Y-94.755
X141.4Y-97.295
X141.4Y-99.835
X141.4Y-102.375
X141.4Y-104.915
X141.4Y-107.455
X141.4Y-109.995
X141.4Y-112.535
X159.725Y-89.675
X159.725Y-92.215
X159.725Y-94.755
X159.725Y-97.295
X159.725Y-99.835
X159.725Y-102.375
X159.725Y-104.915
X159.725Y-107.455
X159.725Y-109.995
X159.725Y-112.535
X167.345Y-89.675
X167.345Y-92.215
X167.345Y-94.755
X167.345Y-97.295
X167.345Y-99.835
X167.345Y-102.375
X167.345Y-104.915
X167.345Y-107.455
X167.345Y-109.995
X167.345Y-112.535
T4
X93.9Y-88.6
X93.9Y-91.1
X93.9Y-93.6
X93.9Y-96.1
X93.9Y-98.6
X93.9Y-101.1
X93.9Y-103.6
X93.9Y-106.1
X93.9Y-108.6
X93.9Y-111.1
X122.3Y-93.575
X122.3Y-96.075
X122.3Y-98.575
X146.9Y-93.5
X146.9Y-96.0
X146.9Y-98.5
X172.8Y-93.5
X172.8Y-96.0
X172.8Y-98.5
X205.75Y-100.5
X208.25Y-100.5
X210.75Y-100.5
X213.25Y-100.5
X215.75Y-100.5
T5
X196.0Y-86.1
X201.0Y-86.1
X201.0Y-104.8
X201.1Y-109.8
T6
X217.95Y-109.4
T2
X204.43Y-110.435G85X204.43Y-111.535
G05
X204.43Y-114.765G85X204.43Y-115.565
G05
X213.07Y-110.435G85X213.07Y-111.535
G05
X213.07Y-114.765G85X213.07Y-115.565
G05
T0
M30
